<svg xmlns="http://www.w3.org/2000/svg" viewBox="0 0 800 400">
  <defs>
    <linearGradient id="bg" x1="0%" y1="0%" x2="100%" y2="100%">
      <stop offset="0%" style="stop-color:#f3f2f1;stop-opacity:1" />
      <stop offset="100%" style="stop-color:#e1dfdd;stop-opacity:1" />
    </linearGradient>
    <linearGradient id="header" x1="0%" y1="0%" x2="100%" y2="0%">
      <stop offset="0%" style="stop-color:#0078d4;stop-opacity:1" />
      <stop offset="100%" style="stop-color:#106ebe;stop-opacity:1" />
    </linearGradient>
  </defs>
  
  <rect width="800" height="400" fill="url(#bg)"/>
  <rect width="800" height="50" fill="url(#header)"/>
  <text x="20" y="32" fill="white" font-family="Segoe UI" font-size="16" font-weight="bold">Power Automate</text>
  <text x="600" y="32" fill="white" font-family="Segoe UI" font-size="12">Sibonelo Dlomo</text>
  
  <text x="400" y="80" fill="#323130" font-family="Segoe UI" font-size="20" font-weight="bold" text-anchor="middle">Scheduled Data Sync & Health Check</text>
  
  <!-- Recurrence Trigger -->
  <rect x="50" y="120" width="140" height="60" rx="8" fill="#0078d4"/>
  <text x="120" y="145" fill="white" font-family="Segoe UI" font-size="11" text-anchor="middle">⏰</text>
  <text x="120" y="165" fill="white" font-family="Segoe UI" font-size="10" text-anchor="middle">Recurrence (Every 4h)</text>
  
  <!-- Arrow 1 -->
  <path d="M190 150 L240 150" stroke="#605e5c" stroke-width="2"/>
  
  <!-- Scope - Try -->
  <rect x="250" y="100" width="160" height="100" rx="8" fill="none" stroke="#5c2d91" stroke-width="2" stroke-dasharray="5,5"/>
  <text x="330" y="120" fill="#5c2d91" font-family="Segoe UI" font-size="10" text-anchor="middle">Try - Sync Operation</text>
  <rect x="270" y="130" width="120" height="35" rx="4" fill="#0078d4"/>
  <text x="330" y="155" fill="white" font-family="Segoe UI" font-size="9" text-anchor="middle">List Dataverse</text>
  <rect x="270" y="170" width="120" height="35" rx="4" fill="#0078d4"/>
  <text x="330" y="195" fill="white" font-family="Segoe UI" font-size="9" text-anchor="middle">List SQL Records</text>
  
  <!-- Arrow 2 -->
  <path d="M410 150 L460 150" stroke="#605e5c" stroke-width="2"/>
  
  <!-- Scope - Catch -->
  <rect x="470" y="100" width="160" height="100" rx="8" fill="none" stroke="#d13438" stroke-width="2" stroke-dasharray="5,5"/>
  <text x="550" y="120" fill="#d13438" font-family="Segoe UI" font-size="10" text-anchor="middle">Catch - Error Handling</text>
  <rect x="490" y="130" width="120" height="35" rx="4" fill="#d13438"/>
  <text x="550" y="155" fill="white" font-family="Segoe UI" font-size="9" text-anchor="middle">Log to Blob</text>
  <rect x="490" y="170" width="120" height="35" rx="4" fill="#d13438"/>
  <text x="550" y="195" fill="white" font-family="Segoe UI" font-size="9" text-anchor="middle">Alert to Teams</text>
  
  <!-- Arrow 3 -->
  <path d="M630 150 L680 150" stroke="#605e5c" stroke-width="2"/>
  
  <!-- Health Check -->
  <rect x="690" y="120" width="100" height="60" rx="8" fill="#038387"/>
  <text x="740" y="145" fill="white" font-family="Segoe UI" font-size="11" text-anchor="middle">💚</text>
  <text x="740" y="165" fill="white" font-family="Segoe UI" font-size="10" text-anchor="middle">Health Check</text>
  
  <!-- Footer -->
  <rect x="50" y="340" width="700" height="50" rx="4" fill="#fff" stroke="#edebe9"/>
  <text x="70" y="365" fill="#605e5c" font-family="Segoe UI" font-size="10">Connectors:</text>
  <rect x="140" y="350" width="80" height="25" rx="4" fill="#0078d4"/>
  <text x="180" y="367" fill="white" font-family="Segoe UI" font-size="9" text-anchor="middle">Dataverse</text>
  <rect x="230" y="350" width="70" height="25" rx="4" fill="#0078d4"/>
  <text x="265" y="367" fill="white" font-family="Segoe UI" font-size="9" text-anchor="middle">SQL</text>
  <rect x="310" y="350" width="90" height="25" rx="4" fill="#0078d4"/>
  <text x="355" y="367" fill="white" font-family="Segoe UI" font-size="9" text-anchor="middle">Azure Blob</text>
  <rect x="410" y="350" width="70" height="25" rx="4" fill="#6264a7"/>
  <text x="445" y="367" fill="white" font-family="Segoe UI" font-size="9" text-anchor="middle">Teams</text>
  
  <text x="650" y="365" fill="#107c10" font-family="Segoe UI" font-size="10" font-weight="bold">✓ On</text>
</svg>
