<svg xmlns="http://www.w3.org/2000/svg" viewBox="0 0 800 400">
  <defs>
    <linearGradient id="bg" x1="0%" y1="0%" x2="100%" y2="100%">
      <stop offset="0%" style="stop-color:#f3f2f1;stop-opacity:1" />
      <stop offset="100%" style="stop-color:#e1dfdd;stop-opacity:1" />
    </linearGradient>
    <linearGradient id="header" x1="0%" y1="0%" x2="100%" y2="0%">
      <stop offset="0%" style="stop-color:#0078d4;stop-opacity:1" />
      <stop offset="100%" style="stop-color:#106ebe;stop-opacity:1" />
    </linearGradient>
  </defs>
  
  <!-- Background -->
  <rect width="800" height="400" fill="url(#bg)"/>
  
  <!-- Header -->
  <rect width="800" height="50" fill="url(#header)"/>
  <text x="20" y="32" fill="white" font-family="Segoe UI" font-size="16" font-weight="bold">Power Automate</text>
  <text x="600" y="32" fill="white" font-family="Segoe UI" font-size="12">Sibonelo Dlomo</text>
  
  <!-- Flow Title -->
  <text x="400" y="80" fill="#323130" font-family="Segoe UI" font-size="20" font-weight="bold" text-anchor="middle">Smart Email Triage Flow</text>
  
  <!-- Trigger -->
  <rect x="50" y="120" width="140" height="60" rx="8" fill="#0078d4"/>
  <text x="120" y="145" fill="white" font-family="Segoe UI" font-size="11" text-anchor="middle">⚡</text>
  <text x="120" y="165" fill="white" font-family="Segoe UI" font-size="10" text-anchor="middle">When new email</text>
  
  <!-- Arrow 1 -->
  <path d="M190 150 L240 150" stroke="#605e5c" stroke-width="2" marker-end="url(#arrowhead)"/>
  
  <!-- AI Builder -->
  <rect x="250" y="120" width="140" height="60" rx="8" fill="#5c2d91"/>
  <text x="320" y="145" fill="white" font-family="Segoe UI" font-size="11" text-anchor="middle">🤖</text>
  <text x="320" y="165" fill="white" font-family="Segoe UI" font-size="10" text-anchor="middle">AI Builder</text>
  
  <!-- Arrow 2 -->
  <path d="M390 150 L440 150" stroke="#605e5c" stroke-width="2"/>
  
  <!-- Condition -->
  <polygon points="450,120 590,120 590,180 520,200 450,180" fill="#0078d4"/>
  <text x="520" y="155" fill="white" font-family="Segoe UI" font-size="11" text-anchor="middle">Switch</text>
  <text x="520" y="170" fill="white" font-family="Segoe UI" font-size="9" text-anchor="middle">Email Category</text>
  
  <!-- Yes Branch -->
  <path d="M520 200 L520 230 L350 230" stroke="#107c10" stroke-width="2"/>
  <path d="M350 230 L350 200" stroke="#107c10" stroke-width="2"/>
  <rect x="250" y="180" width="100" height="40" rx="4" fill="#107c10"/>
  <text x="300" y="205" fill="white" font-family="Segoe UI" font-size="10" text-anchor="middle">Sales</text>
  
  <!-- No Branch -->
  <path d="M590 200 L590 230 L700 230" stroke="#d13438" stroke-width="2"/>
  <path d="M700 230 L700 200" stroke="#d13438" stroke-width="2"/>
  <rect x="650" y="180" width="100" height="40" rx="4" fill="#d13438"/>
  <text x="700" y="205" fill="white" font-family="Segoe UI" font-size="10" text-anchor="middle">Support</text>
  
  <!-- Footer -->
  <rect x="50" y="280" width="700" height="60" rx="4" fill="#fff" stroke="#edebe9"/>
  <text x="70" y="305" fill="#605e5c" font-family="Segoe UI" font-size="10">Connectors:</text>
  <rect x="140" y="290" width="70" height="25" rx="4" fill="#0078d4"/>
  <text x="175" y="307" fill="white" font-family="Segoe UI" font-size="9" text-anchor="middle">Office 365</text>
  <rect x="220" y="290" width="70" height="25" rx="4" fill="#5c2d91"/>
  <text x="255" y="307" fill="white" font-family="Segoe UI" font-size="9" text-anchor="middle">AI Builder</text>
  <rect x="300" y="290" width="80" height="25" rx="4" fill="#0078d4"/>
  <text x="340" y="307" fill="white" font-family="Segoe UI" font-size="9" text-anchor="middle">Dataverse</text>
  <rect x="390" y="290" width="70" height="25" rx="4" fill="#6264a7"/>
  <text x="425" y="307" fill="white" font-family="Segoe UI" font-size="9" text-anchor="middle">Teams</text>
  
  <!-- Status -->
  <text x="650" y="305" fill="#107c10" font-family="Segoe UI" font-size="10" font-weight="bold">✓ On</text>
</svg>
