<svg xmlns="http://www.w3.org/2000/svg" viewBox="0 0 800 400">
  <defs>
    <linearGradient id="bg" x1="0%" y1="0%" x2="100%" y2="100%">
      <stop offset="0%" style="stop-color:#f3f2f1;stop-opacity:1" />
      <stop offset="100%" style="stop-color:#e1dfdd;stop-opacity:1" />
    </linearGradient>
    <linearGradient id="header" x1="0%" y1="0%" x2="100%" y2="0%">
      <stop offset="0%" style="stop-color:#0078d4;stop-opacity:1" />
      <stop offset="100%" style="stop-color:#106ebe;stop-opacity:1" />
    </linearGradient>
  </defs>
  
  <rect width="800" height="400" fill="url(#bg)"/>
  <rect width="800" height="50" fill="url(#header)"/>
  <text x="20" y="32" fill="white" font-family="Segoe UI" font-size="16" font-weight="bold">Power Automate</text>
  <text x="600" y="32" fill="white" font-family="Segoe UI" font-size="12">Sibonelo Dlomo</text>
  
  <text x="400" y="80" fill="#323130" font-family="Segoe UI" font-size="20" font-weight="bold" text-anchor="middle">Leave Request Approval</text>
  
  <!-- Trigger -->
  <rect x="50" y="120" width="140" height="60" rx="8" fill="#038387"/>
  <text x="120" y="145" fill="white" font-family="Segoe UI" font-size="11" text-anchor="middle">📋</text>
  <text x="120" y="165" fill="white" font-family="Segoe UI" font-size="10" text-anchor="middle">Item Created</text>
  
  <!-- Arrow 1 -->
  <path d="M190 150 L240 150" stroke="#605e5c" stroke-width="2"/>
  
  <!-- Get Employee -->
  <rect x="250" y="120" width="140" height="60" rx="8" fill="#038387"/>
  <text x="320" y="145" fill="white" font-family="Segoe UI" font-size="11" text-anchor="middle">👤</text>
  <text x="320" y="165" fill="white" font-family="Segoe UI" font-size="10" text-anchor="middle">Get Employee</text>
  
  <!-- Arrow 2 -->
  <path d="M390 150 L440 150" stroke="#605e5c" stroke-width="2"/>
  
  <!-- Check Balance -->
  <rect x="450" y="120" width="140" height="60" rx="8" fill="#0078d4"/>
  <text x="520" y="145" fill="white" font-family="Segoe UI" font-size="11" text-anchor="middle">💰</text>
  <text x="520" y="165" fill="white" font-family="Segoe UI" font-size="10" text-anchor="middle">Check Balance</text>
  
  <!-- Arrow 3 -->
  <path d="M590 150 L640 150" stroke="#605e5c" stroke-width="2"/>
  
  <!-- Condition -->
  <polygon points="650,120 750,120 750,180 700,200 650,180" fill="#0078d4"/>
  <text x="700" y="155" fill="white" font-family="Segoe UI" font-size="11" text-anchor="middle">Condition</text>
  <text x="700" y="170" fill="white" font-family="Segoe UI" font-size="9" text-anchor="middle">Sufficient?</text>
  
  <!-- Yes Branch -->
  <path d="M700 200 L700 230 L550 230" stroke="#107c10" stroke-width="2"/>
  <path d="M550 230 L550 200" stroke="#107c10" stroke-width="2"/>
  <rect x="450" y="180" width="100" height="40" rx="4" fill="#5c2d91"/>
  <text x="500" y="205" fill="white" font-family="Segoe UI" font-size="10" text-anchor="middle">Manager Approval</text>
  
  <!-- No Branch -->
  <path d="M750 200 L750 230 L800 230 L800 290 L700 290" stroke="#d13438" stroke-width="2"/>
  <rect x="580" y="270" width="120" height="40" rx="4" fill="#d13438"/>
  <text x="640" y="295" fill="white" font-family="Segoe UI" font-size="10" text-anchor="middle">Insufficient Balance</text>
  
  <!-- Footer -->
  <rect x="50" y="340" width="700" height="50" rx="4" fill="#fff" stroke="#edebe9"/>
  <text x="70" y="365" fill="#605e5c" font-family="Segoe UI" font-size="10">Connectors:</text>
  <rect x="140" y="350" width="80" height="25" rx="4" fill="#038387"/>
  <text x="180" y="367" fill="white" font-family="Segoe UI" font-size="9" text-anchor="middle">SharePoint</text>
  <rect x="230" y="350" width="80" height="25" rx="4" fill="#5c2d91"/>
  <text x="270" y="367" fill="white" font-family="Segoe UI" font-size="9" text-anchor="middle">Approvals</text>
  <rect x="320" y="350" width="70" height="25" rx="4" fill="#0078d4"/>
  <text x="355" y="367" fill="white" font-family="Segoe UI" font-size="9" text-anchor="middle">Office 365</text>
  <rect x="400" y="350" width="80" height="25" rx="4" fill="#0078d4"/>
  <text x="440" y="367" fill="white" font-family="Segoe UI" font-size="9" text-anchor="middle">Calendar</text>
  
  <text x="650" y="365" fill="#107c10" font-family="Segoe UI" font-size="10" font-weight="bold">✓ On</text>
</svg>
