<svg xmlns="http://www.w3.org/2000/svg" viewBox="0 0 800 400">
  <defs>
    <linearGradient id="bg" x1="0%" y1="0%" x2="100%" y2="100%">
      <stop offset="0%" style="stop-color:#f3f2f1;stop-opacity:1" />
      <stop offset="100%" style="stop-color:#e1dfdd;stop-opacity:1" />
    </linearGradient>
    <linearGradient id="header" x1="0%" y1="0%" x2="100%" y2="0%">
      <stop offset="0%" style="stop-color:#0078d4;stop-opacity:1" />
      <stop offset="100%" style="stop-color:#106ebe;stop-opacity:1" />
    </linearGradient>
  </defs>
  
  <rect width="800" height="400" fill="url(#bg)"/>
  <rect width="800" height="50" fill="url(#header)"/>
  <text x="20" y="32" fill="white" font-family="Segoe UI" font-size="16" font-weight="bold">Power Automate</text>
  <text x="600" y="32" fill="white" font-family="Segoe UI" font-size="12">Sibonelo Dlomo</text>
  
  <text x="400" y="80" fill="#323130" font-family="Segoe UI" font-size="20" font-weight="bold" text-anchor="middle">On-Demand Automation Toolkit</text>
  
  <!-- Manual Trigger -->
  <rect x="50" y="120" width="140" height="60" rx="8" fill="#0078d4"/>
  <text x="120" y="145" fill="white" font-family="Segoe UI" font-size="11" text-anchor="middle">🔘</text>
  <text x="120" y="165" fill="white" font-family="Segoe UI" font-size="10" text-anchor="middle">Manual (Button)</text>
  
  <!-- Arrow -->
  <path d="M190 150 L240 150" stroke="#605e5c" stroke-width="2"/>
  
  <!-- Switch -->
  <polygon points="250,100 450,100 450,200 400,230 350,230 350,200 250,200" fill="#5c2d91"/>
  <text x="350" y="145" fill="white" font-family="Segoe UI" font-size="14" text-anchor="middle">Switch</text>
  <text x="350" y="170" fill="white" font-family="Segoe UI" font-size="10" text-anchor="middle">Action Type</text>
  
  <!-- Branch 1 -->
  <path d="M350 230 L350 260 L130 260 L130 290" stroke="#0078d4" stroke-width="2"/>
  <rect x="30" y="270" width="100" height="40" rx="4" fill="#0078d4"/>
  <text x="80" y="295" fill="white" font-family="Segoe UI" font-size="10" text-anchor="middle">📧 Email Digest</text>
  
  <!-- Branch 2 -->
  <path d="M400 230 L400 260 L530 260 L530 290" stroke="#107c10" stroke-width="2"/>
  <rect x="430" y="270" width="100" height="40" rx="4" fill="#107c10"/>
  <text x="480" y="295" fill="white" font-family="Segoe UI" font-size="10" text-anchor="middle">🔄 Data Sync</text>
  
  <!-- Branch 3 -->
  <path d="M400 230 L400 260 L680 260 L680 290" stroke="#5c2d91" stroke-width="2"/>
  <rect x="580" y="270" width="100" height="40" rx="4" fill="#5c2d91"/>
  <text x="630" y="295" fill="white" font-family="Segoe UI" font-size="10" text-anchor="middle">📊 Report Gen</text>
  
  <!-- Footer -->
  <rect x="50" y="340" width="700" height="50" rx="4" fill="#fff" stroke="#edebe9"/>
  <text x="70" y="365" fill="#605e5c" font-family="Segoe UI" font-size="10">Connectors:</text>
  <rect x="140" y="350" width="70" height="25" rx="4" fill="#0078d4"/>
  <text x="175" y="367" fill="white" font-family="Segoe UI" font-size="9" text-anchor="middle">Outlook</text>
  <rect x="220" y="350" width="80" height="25" rx="4" fill="#0078d4"/>
  <text x="260" y="367" fill="white" font-family="Segoe UI" font-size="9" text-anchor="middle">Dataverse</text>
  <rect x="310" y="350" width="70" height="25" rx="4" fill="#6264a7"/>
  <text x="345" y="367" fill="white" font-family="Segoe UI" font-size="9" text-anchor="middle">Teams</text>
  <rect x="390" y="350" width="80" height="25" rx="4" fill="#038387"/>
  <text x="430" y="367" fill="white" font-family="Segoe UI" font-size="9" text-anchor="middle">SharePoint</text>
  
  <text x="650" y="365" fill="#107c10" font-family="Segoe UI" font-size="10" font-weight="bold">✓ On</text>
</svg>
